<?xml version="1.0" encoding="utf-8"?>
<!-- Generator: Adobe Illustrator 24.0.0, SVG Export Plug-In . SVG Version: 6.00 Build 0)  -->
<svg version="1.1" id="Layer_1" xmlns="http://www.w3.org/2000/svg" xmlns:xlink="http://www.w3.org/1999/xlink" x="0px" y="0px"
	 viewBox="0 0 64 64" style="enable-background:new 0 0 64 64;" xml:space="preserve">
<style type="text/css">
	.st0{fill:#352525;}
	.st1{fill:#C49A4A;}
	.st2{fill:#2F5D73;}
</style>
<g>
	<path class="st0" d="M26.8,27c3.1-0.1,6.2,0.3,9.2,1l-2-21.9C34,4.9,33.1,4,32,4.1l-5.3,0.4c-1,0.1-1.8,1.1-1.7,2.4L26.8,27z"/>
	<path class="st0" d="M37,38.5c-0.5,0-1-0.1-1.5-0.3c-2.5-0.8-5.1-1.2-7.8-1.2l2,22.3c0.1,1.2,1,2.2,2.1,2.1l5.3-0.4
		c1-0.1,1.8-1.1,1.7-2.4L37,38.5z"/>
	<line class="st1" x1="27.6" y1="35.1" x2="36.7" y2="35.1"/>
	<polyline class="st1" points="36.7,35.1 57.7,35.1 57.7,51 8.5,51 2.2,43 8.5,35.1 27.6,35.1 	"/>
	<polyline class="st2" points="25,32.2 6.7,32.2 6.7,16.2 56.1,16.2 62.3,24.2 56.1,32.2 37,32.2 	"/>
	<line class="st2" x1="27.3" y1="32.2" x2="25" y2="32.2"/>
	<line class="st2" x1="37" y1="32.2" x2="27.3" y2="32.2"/>
</g>
</svg>
